<svg xmlns="http://www.w3.org/2000/svg" viewBox="0 0 750 500"><g id="freepik--background-complete--inject-67"><path d="M232.17,134.15H105.53V47.51H232.17Zm-125.64-1H231.17V48.51H106.53Z" style="fill:#ebebeb"></path><path d="M115.43,53.1a2.52,2.52,0,1,1-2.52-2.53A2.52,2.52,0,0,1,115.43,53.1Z" style="fill:#a6a6a6"></path><path d="M125.73,53.1a2.52,2.52,0,1,1-2.52-2.53A2.52,2.52,0,0,1,125.73,53.1Z" style="fill:#ebebeb"></path><path d="M136,53.1a2.52,2.52,0,1,1-2.52-2.53A2.52,2.52,0,0,1,136,53.1Z" style="fill:#407BFF"></path><rect x="106.03" y="57.53" width="125.64" height="1" style="fill:#ebebeb"></rect><path d="M633.45,251.89l8.29-13.37L637.62,236a3.72,3.72,0,0,1-1.71-3.51,22.1,22.1,0,0,0,.08-2.3,3.77,3.77,0,0,1,2-3.44l4.24-2.27-7.44-13.87-4.24,2.27a3.68,3.68,0,0,1-3.85-.2,18,18,0,0,0-2.13-1.32,3.69,3.69,0,0,1-1.9-3.36l.15-4.82-15.72-.48-.15,4.83a3.71,3.71,0,0,1-2.13,3.23c-.37.17-.73.35-1.1.54l-1.06.61a3.68,3.68,0,0,1-3.85,0l-4.12-2.56-8.3,13.37,4.14,2.56a3.75,3.75,0,0,1,1.7,3.52,21.81,21.81,0,0,0-.08,2.29,3.76,3.76,0,0,1-2,3.43l-4.24,2.28,7.43,13.87,4.25-2.28a3.77,3.77,0,0,1,3.94.28q.94.65,2,1.2a3.69,3.69,0,0,1,2,3.36l-.15,4.86,15.73.49.15-4.83a3.73,3.73,0,0,1,2.18-3.24c.35-.17.7-.34,1-.53s.68-.37,1-.57a3.74,3.74,0,0,1,3.92,0Zm-11.89-10.81a12.89,12.89,0,1,1,4.55-15A12.89,12.89,0,0,1,621.56,241.08Z" style="fill:#ebebeb"></path><path d="M91.58,211.48a2.63,2.63,0,0,1,1.28,2.44c0,.27,0,.54,0,.81s0,.54,0,.81A2.63,2.63,0,0,1,91.58,218l-2.93,1.69,5.51,9.55,2.93-1.69a2.62,2.62,0,0,1,2.75.09,15.48,15.48,0,0,0,1.42.83,2.62,2.62,0,0,1,1.45,2.32v3.38h11v-3.38a2.62,2.62,0,0,1,1.45-2.32,15.48,15.48,0,0,0,1.42-.83,2.62,2.62,0,0,1,2.75-.09l2.93,1.69,5.5-9.55-2.94-1.7a2.61,2.61,0,0,1-1.27-2.42c0-.27,0-.54,0-.81s0-.54,0-.81a2.63,2.63,0,0,1,1.28-2.44l2.93-1.69-5.5-9.54-2.93,1.69a2.63,2.63,0,0,1-2.74-.1,15.55,15.55,0,0,0-1.43-.82,2.63,2.63,0,0,1-1.45-2.33v-3.37h-11v3.37a2.63,2.63,0,0,1-1.45,2.33,14.33,14.33,0,0,0-1.43.82,2.62,2.62,0,0,1-2.75.1l-2.92-1.69-5.51,9.54Zm16.63-5.79a9,9,0,1,1-9,9A9,9,0,0,1,108.21,205.69Z" style="fill:#ebebeb"></path><path d="M634.57,294.87a2.63,2.63,0,0,1,1.28,2.43c0,.27,0,.54,0,.82s0,.54,0,.81a2.64,2.64,0,0,1-1.27,2.43l-2.94,1.69,5.51,9.54,2.93-1.68a2.62,2.62,0,0,1,2.75.09,13.4,13.4,0,0,0,1.42.82,2.63,2.63,0,0,1,1.45,2.33v3.38h11v-3.38a2.63,2.63,0,0,1,1.45-2.33,13.4,13.4,0,0,0,1.42-.82,2.62,2.62,0,0,1,2.75-.09l2.93,1.68,5.51-9.54-2.95-1.7a2.63,2.63,0,0,1-1.27-2.42c0-.27,0-.54,0-.81s0-.55,0-.82a2.63,2.63,0,0,1,1.28-2.43l2.94-1.69-5.51-9.54-2.92,1.68a2.62,2.62,0,0,1-2.75-.09,15.55,15.55,0,0,0-1.43-.82,2.63,2.63,0,0,1-1.45-2.33V278.7h-11v3.38a2.63,2.63,0,0,1-1.45,2.33,15.55,15.55,0,0,0-1.43.82,2.62,2.62,0,0,1-2.75.09l-2.92-1.68-5.51,9.54Zm16.64-5.79a9,9,0,1,1-9,9A9,9,0,0,1,651.21,289.08Z" style="fill:#ebebeb"></path><path d="M632.4,93.57A38.17,38.17,0,1,1,594.65,49.8V88Z" style="fill:#dbdbdb"></path><path d="M640.59,80.2a38.11,38.11,0,0,1-.41,5.59L602.42,80.2V42A38.14,38.14,0,0,1,640.59,80.2Z" style="fill:#ebebeb"></path><rect x="610.92" y="101.05" width="28.42" height="1" style="fill:#c7c7c7"></rect><path d="M642.19,104.9a3.35,3.35,0,1,1,3.34-3.35A3.35,3.35,0,0,1,642.19,104.9Zm0-5.69a2.35,2.35,0,1,0,2.34,2.34A2.35,2.35,0,0,0,642.19,99.21Z" style="fill:#c7c7c7"></path><rect x="652.5" y="99.42" width="31.53" height="1.42" style="fill:#c7c7c7"></rect><rect x="652.5" y="102.26" width="17.85" height="1.42" style="fill:#c7c7c7"></rect><rect x="69.95" y="288.11" width="9.43" height="67.1" style="fill:#ebebeb"></rect><rect x="86.15" y="304.35" width="9.43" height="50.86" style="fill:#ebebeb"></rect><rect x="102.36" y="329.78" width="9.43" height="25.43" style="fill:#ebebeb"></rect><rect x="118.57" y="315.26" width="9.43" height="39.95" style="fill:#ebebeb"></rect><rect x="134.77" y="300.01" width="9.43" height="55.21" style="fill:#ebebeb"></rect><rect x="150.98" y="291.04" width="9.43" height="64.18" style="fill:#ebebeb"></rect><path d="M64.48,279.58l.11,18.91,0,18.91.08,37.81-.24-.24q13,0,26,0l26,0,26,.05,26,.14-26,.14-26,0-26,.06c-8.67,0-17.33,0-26,0h-.24v-.24l.08-37.81.05-18.91Z" style="fill:#ebebeb"></path><path d="M62.4,283.37a8.45,8.45,0,0,1,4.16,0,8.15,8.15,0,0,1-4.16,0Z" style="fill:#ebebeb"></path><path d="M62.4,289.12a8.15,8.15,0,0,1,4.16,0,8.15,8.15,0,0,1-4.16,0Z" style="fill:#ebebeb"></path><path d="M62.4,294.87a8.15,8.15,0,0,1,4.16,0,8.15,8.15,0,0,1-4.16,0Z" style="fill:#ebebeb"></path><path d="M62.4,300.62a7.43,7.43,0,0,1,2.08-.27,7.08,7.08,0,0,1,2.08.27,7.07,7.07,0,0,1-2.08.26A7.42,7.42,0,0,1,62.4,300.62Z" style="fill:#ebebeb"></path><path d="M62.4,306.36a7.42,7.42,0,0,1,2.08-.26,7.07,7.07,0,0,1,2.08.26,7.08,7.08,0,0,1-2.08.27A7.43,7.43,0,0,1,62.4,306.36Z" style="fill:#ebebeb"></path><path d="M62.4,312.11a8.45,8.45,0,0,1,4.16,0,8.15,8.15,0,0,1-4.16,0Z" style="fill:#ebebeb"></path><path d="M62.4,317.86a8.15,8.15,0,0,1,4.16,0,8.15,8.15,0,0,1-4.16,0Z" style="fill:#ebebeb"></path><path d="M62.4,323.61a8.15,8.15,0,0,1,4.16,0,8.15,8.15,0,0,1-4.16,0Z" style="fill:#ebebeb"></path><path d="M62.4,329.36a8.15,8.15,0,0,1,4.16,0,8.45,8.45,0,0,1-4.16,0Z" style="fill:#ebebeb"></path><path d="M62.4,335.1a8.45,8.45,0,0,1,4.16,0,8.15,8.15,0,0,1-4.16,0Z" style="fill:#ebebeb"></path><path d="M62.4,340.85a8.45,8.45,0,0,1,4.16,0,8.15,8.15,0,0,1-4.16,0Z" style="fill:#ebebeb"></path><path d="M62.4,346.6a8.15,8.15,0,0,1,4.16,0,8.15,8.15,0,0,1-4.16,0Z" style="fill:#ebebeb"></path></g><g id="freepik--Shadow--inject-67"><ellipse cx="375" cy="449.95" rx="286.91" ry="17.29" style="fill:#ebebeb"></ellipse></g><g id="freepik--Floor--inject-67"><polygon points="46.93 393.56 128.95 393.31 210.96 393.23 375 393.06 539.04 393.23 621.05 393.31 703.07 393.56 621.05 393.8 539.04 393.89 375 394.06 210.96 393.89 128.95 393.8 46.93 393.56" style="fill:#263238"></polygon></g><g id="freepik--Plant--inject-67"><path d="M652.31,334a247.7,247.7,0,0,1,.36-26.42A336.39,336.39,0,0,1,661,253.71c2.3-10,5.15-19.75,8.11-29.53.09-.3.56-.22.48.09-9.16,34.48-16.67,70.06-16.16,105.91.15,10,1.31,19.88,2.26,29.85,0,.26-.41.37-.47.1C653.28,351.6,652.66,342.66,652.31,334Z" style="fill:#407BFF"></path><path d="M669.54,224.27s13.87,35.21,10.76,43.49-9.51,10-9.51,10,8.49,12.12,2.56,23.48-19.11,10.83-20,23.72C653.37,325,652.63,271.11,669.54,224.27Z" style="fill:#407BFF"></path><path d="M654.87,302.75a.32.32,0,0,1,0-.19,322.55,322.55,0,0,1,13.45-70.83c0-.07.14,0,.12,0q-4.12,15.45-7.29,31.06a15.35,15.35,0,0,1,6.63-3.69s.06.05,0,.07a17.62,17.62,0,0,0-6.84,4.57c-.4,2-.8,4.08-1.18,6.13,3.1-3.47,7.4-5.19,11.71-6.82a0,0,0,1,1,0,.09c-4.48,1.83-8.94,4.18-12,8Q658,280,656.77,288.8a16.77,16.77,0,0,1,8.28-4.74c.09,0,.15.11.05.14a17.49,17.49,0,0,0-8.39,5.38l-.05,0q-.42,3.11-.79,6.21a21.57,21.57,0,0,1,5.8-3.5,0,0,0,1,1,0,.09,19.77,19.77,0,0,0-5.8,3.85.12.12,0,0,1-.08,0c-.23,2-.46,3.95-.66,5.93a28.15,28.15,0,0,1,11.77-8.41c.09,0,.13.11.05.15a30.58,30.58,0,0,0-11.6,8.92.26.26,0,0,1-.29.09c-.3,3-.57,6.06-.79,9.1,0,.05-.07.05-.07,0C654.4,309,654.62,305.86,654.87,302.75Z" style="fill:#263238"></path><path d="M666,255.63a17.39,17.39,0,0,1,8.33-2.6.06.06,0,0,1,0,.11,32.74,32.74,0,0,0-8.24,2.69C666,255.88,665.92,255.7,666,255.63Z" style="fill:#263238"></path><path d="M664.34,292.91a17.51,17.51,0,0,1,6.25-2.14c.08,0,.08.1,0,.12a23.49,23.49,0,0,0-6.19,2.17C664.33,293.1,664.25,293,664.34,292.91Z" style="fill:#263238"></path><path d="M615.84,268.33a94.21,94.21,0,0,1,16.06,14,57.61,57.61,0,0,1,11.26,19.09,143,143,0,0,1,8.39,45.67,111.4,111.4,0,0,1-2.48,25.69.24.24,0,0,1-.48-.09,143.86,143.86,0,0,0-.25-44.9c-2.38-14.56-6.12-30.41-15.38-42.25-5.05-6.44-11.33-11.52-17.55-16.76C615.09,268.55,615.51,268.1,615.84,268.33Z" style="fill:#407BFF"></path><path d="M649.5,336.65a85.87,85.87,0,0,0-11.7-15c-6.94-6.94-12.78-11.87-13.69-16.46s7-8,7-8S621.46,299,618.84,295s-3.9-27.37-3.9-27.37,17.47,12.47,25.61,30S649.5,336.65,649.5,336.65Z" style="fill:#407BFF"></path><path d="M621,273.57c7.35,7.22,14.75,14.91,19.08,24.39A92.55,92.55,0,0,1,643.92,308a0,0,0,0,0,0,0c.22.69.45,1.38.66,2.07a.27.27,0,0,1,0,.12,198,198,0,0,1,5,21.56s-.06.07-.07,0q-1.12-5.47-2.51-11l-.1,0a15.19,15.19,0,0,0-4.59-1.16c-.1,0-.09-.2,0-.19a17.08,17.08,0,0,1,4.54.83c-.85-3.31-1.77-6.61-2.8-9.86a49,49,0,0,0-10.36-1.35s-.05-.05,0-.06a39.15,39.15,0,0,1,10.19.87c-.18-.56-.37-1.11-.56-1.67a53.29,53.29,0,0,0-6.89-1.17s0-.07,0-.07a33.22,33.22,0,0,1,6.75.82c-.95-2.81-2-5.59-3.11-8.29a52.22,52.22,0,0,0-3.3-6.4,40.92,40.92,0,0,0-5.59-1c-.06,0,0-.09,0-.09a14.89,14.89,0,0,1,5.23.51c-.92-1.48-1.88-2.93-2.92-4.34h0c-3.92-.87-7.89-1.68-11.89-.92-.07,0-.1-.11,0-.12,3.81-1,7.6-.43,11.4.32-.42-.55-.84-1.09-1.27-1.63a25.55,25.55,0,0,0-7.32-1.15s-.06-.08,0-.08a19.17,19.17,0,0,1,6.83.6c-3.24-4-6.82-7.8-10.35-11.54C620.68,273.5,620.81,273.39,621,273.57Z" style="fill:#263238"></path><path d="M621.18,289.48a16.13,16.13,0,0,1,3.47-.12.12.12,0,0,1,0,.24c-1.15,0-2.3-.05-3.45,0A.07.07,0,1,1,621.18,289.48Z" style="fill:#263238"></path><path d="M633.75,312.12a15.83,15.83,0,0,1,5.39,1.08,0,0,0,0,1,0,.08c-1.78-.42-3.57-.6-5.37-.89C633.59,312.36,633.6,312.12,633.75,312.12Z" style="fill:#263238"></path><path d="M637.52,304.3a11,11,0,0,1,2.29.21.07.07,0,0,1,0,.13,10.32,10.32,0,0,1-2.29-.11A.12.12,0,0,1,637.52,304.3Z" style="fill:#263238"></path><path d="M700.72,293.1a79.77,79.77,0,0,0-16.24,7.65A48.71,48.71,0,0,0,671,313.6a120.36,120.36,0,0,0-17.34,35A93.54,93.54,0,0,0,649.67,370a.21.21,0,0,0,.41,0,121.66,121.66,0,0,1,10.58-36.28c5.3-11.23,12-23.19,22.22-30.63,5.57-4.05,11.83-6.7,18.07-9.51C701.28,293.45,701.05,293,700.72,293.1Z" style="fill:#407BFF"></path><path d="M657.69,340.61a72.68,72.68,0,0,1,12.93-9.4c7.22-4,13.08-6.65,14.88-10.16s-3.79-8.05-3.79-8.05,7.37,3.61,10.43,1,9.48-21.25,9.48-21.25S684.6,298.76,674,311,657.69,340.61,657.69,340.61Z" style="fill:#407BFF"></path><path d="M658.57,336.77c8.52-16,19.88-30.43,35.44-40,0,0,0,0,0,0a78.23,78.23,0,0,0-11.39,8.91,18.1,18.1,0,0,1,9.15,1.93.06.06,0,0,1,0,.1,25,25,0,0,0-9.42-1.59.18.18,0,0,1-.1,0c-.55.52-1.1,1.05-1.64,1.59a28.6,28.6,0,0,1,4.89.65s0,.08,0,.07a24.9,24.9,0,0,0-5.17-.43,107.28,107.28,0,0,0-8,9.12,8.05,8.05,0,0,1,3.42.25.07.07,0,0,1,0,.13,18.57,18.57,0,0,0-3.65-.06c-.47.6-.94,1.19-1.4,1.79a33.07,33.07,0,0,1,10.34,1,0,0,0,0,1,0,.08,41.52,41.52,0,0,0-10.61-.69c-.43.58-.85,1.17-1.27,1.75a22.44,22.44,0,0,1,6.15.71.06.06,0,0,1,0,.12,23.41,23.41,0,0,0-6.36-.5q-2.74,3.8-5.27,7.72a5.62,5.62,0,0,1,2.7.16,0,0,0,0,1,0,.07,12.39,12.39,0,0,0-2.92.14c-1.52,2.36-3,4.75-4.38,7.14C658.79,337.14,658.46,337,658.57,336.77Z" style="fill:#263238"></path><path d="M671.82,323.52a13.35,13.35,0,0,1,4.94.6s0,.09,0,.08a38.7,38.7,0,0,0-4.92-.51A.09.09,0,1,1,671.82,323.52Z" style="fill:#263238"></path><path d="M686.66,304a8.7,8.7,0,0,1,2.28.14.07.07,0,1,1,0,.13c-.75-.08-1.49-.05-2.24-.07A.1.1,0,0,1,686.66,304Z" style="fill:#263238"></path><polygon points="635.73 393.45 674.15 393.45 668.67 353.32 667.27 343.03 642.61 343.03 641.21 353.32 635.73 393.45" style="fill:#455a64"></polygon><polygon points="641.21 353.32 668.67 353.32 667.27 343.03 642.61 343.03 641.21 353.32" style="fill:#263238"></polygon><rect x="639.08" y="339.46" width="31.72" height="8.71" transform="translate(1309.89 687.63) rotate(180)" style="fill:#455a64"></rect></g><g id="freepik--Device--inject-67"><rect x="145.11" y="67.87" width="450.2" height="306.13" style="fill:#263238"></rect><rect x="145.11" y="328.84" width="450.2" height="45.16" style="fill:#dbdbdb"></rect><rect x="282.48" y="429.19" width="175.46" height="14.66" style="fill:#c7c7c7"></rect><polygon points="437.04 429.2 303.37 429.2 306.77 403.75 306.94 402.55 307.25 400.16 307.41 398.96 307.73 396.58 307.78 396.21 307.89 395.38 308.21 392.99 308.37 391.79 310.75 374.01 429.67 374.01 431.91 390.78 432.02 391.59 432.39 394.37 432.49 395.18 432.64 396.21 432.87 397.95 432.97 398.76 433.34 401.55 433.45 402.35 437.04 429.2" style="fill:#dbdbdb"></polygon><path d="M377.53,348.39a7.46,7.46,0,1,1-7.46-7.46A7.45,7.45,0,0,1,377.53,348.39Z" style="fill:#37474f"></path><polygon points="432.64 396.21 308.37 391.79 310.75 374.01 429.67 374.01 432.64 396.21" style="fill:#c7c7c7"></polygon><rect x="165.88" y="87.78" width="408.65" height="219.83" style="fill:#fff"></rect><rect x="165.88" y="87.78" width="408.65" height="219.83" style="fill:#fff"></rect><rect x="165.88" y="97.72" width="401.41" height="28.43" style="fill:#407BFF"></rect><rect x="179.38" y="107.23" width="9.7" height="1.56" style="fill:#fff"></rect><rect x="179.38" y="114.21" width="9.7" height="1.56" style="fill:#fff"></rect><rect x="179.38" y="110.76" width="9.7" height="1.56" style="fill:#fff"></rect><rect x="283.9" y="107.31" width="220.09" height="8.37" style="fill:#fff"></rect><path d="M504.07,115.77H283.81v-8.54H504.07Z" style="fill:#fff"></path><rect x="495.52" y="107.23" width="8.55" height="8.55" style="fill:#455a64"></rect><path d="M502.45,113.85l-.77.58-1.44-1.89-.52-.69a1.11,1.11,0,0,0,.3-.17,1.26,1.26,0,0,0,.4-.52l.56.74Z" style="fill:#fff"></path><path d="M500.93,109.39a2.11,2.11,0,1,0-.69,3.15,1.89,1.89,0,0,0,.3-.19,2.08,2.08,0,0,0,.44-.45A2.13,2.13,0,0,0,500.93,109.39Zm-.91,2.29a1.11,1.11,0,0,1-.3.17,1.28,1.28,0,0,1-1.47-.4,1.27,1.27,0,1,1,1.77.23Z" style="fill:#fff"></path><rect x="285.65" y="108.96" width="0.45" height="5.08" style="fill:#c7c7c7"></rect><path d="M552.58,116a4.51,4.51,0,0,1-1.37.57,4.71,4.71,0,0,1-3.63-.57,4.76,4.76,0,1,1,5,0Z" style="fill:#455a64"></path><path d="M551.53,111.42a1.45,1.45,0,1,1-1.45-1.45A1.45,1.45,0,0,1,551.53,111.42Z" style="fill:#fff"></path><path d="M552.58,115.41v.6a4.51,4.51,0,0,1-1.37.57,4.71,4.71,0,0,1-3.63-.57v-.6a2.5,2.5,0,1,1,5,0Z" style="fill:#fff"></path><path d="M536.11,116.72H532.8v-1.17a.18.18,0,0,0-.1-.16,2.5,2.5,0,0,1-.35-.21.21.21,0,0,0-.19,0l-1,.59-1.65-2.86,1-.59a.19.19,0,0,0,.08-.17,1.27,1.27,0,0,1,0-.2,1.48,1.48,0,0,1,0-.21.17.17,0,0,0-.09-.16l-1-.59,1.65-2.86,1,.58a.17.17,0,0,0,.19,0l.35-.21a.18.18,0,0,0,.1-.15v-1.17h3.31v1.17a.2.2,0,0,0,.1.16l.36.2a.19.19,0,0,0,.19,0l1-.58,1.65,2.86-1,.59a.18.18,0,0,0-.09.17,2,2,0,0,1,0,.4.19.19,0,0,0,.09.17l1,.59-1.65,2.86-1-.58a.19.19,0,0,0-.19,0,3.35,3.35,0,0,1-.36.21.18.18,0,0,0-.1.16Zm-2.48-.82h1.66v-.35a1,1,0,0,1,.55-.89l.28-.16a1,1,0,0,1,1,0l.3.18.83-1.44L538,113a1,1,0,0,1-.49-.92v-.32a1,1,0,0,1,.5-.93l.3-.17-.83-1.44-.3.18a1,1,0,0,1-1,0l-.28-.16a1,1,0,0,1-.55-.89V108h-1.66v.35a1,1,0,0,1-.55.89l-.29.16a1,1,0,0,1-1,0l-.3-.18-.83,1.44.31.17a1,1,0,0,1,.49.93v.32a1,1,0,0,1-.49.93l-.31.17.83,1.44.31-.18a1,1,0,0,1,1,0l.29.16a1,1,0,0,1,.55.89Zm.83-1.52a2.45,2.45,0,1,1,2.44-2.44A2.45,2.45,0,0,1,534.46,114.38Zm0-4.06a1.62,1.62,0,1,0,1.62,1.62A1.61,1.61,0,0,0,534.46,110.32Z" style="fill:#455a64"></path><rect x="197.3" y="110.76" width="66.68" height="3.19" style="fill:#455a64"></rect><rect x="165.88" y="87.78" width="408.65" height="9.95" style="fill:#455a64"></rect><path d="M173.79,92.75a2.47,2.47,0,1,1-2.47-2.47A2.48,2.48,0,0,1,173.79,92.75Z" style="fill:#c7c7c7"></path><path d="M183.86,92.75a2.47,2.47,0,1,1-2.47-2.47A2.47,2.47,0,0,1,183.86,92.75Z" style="fill:#fff"></path><path d="M193.94,92.75a2.47,2.47,0,1,1-2.47-2.47A2.48,2.48,0,0,1,193.94,92.75Z" style="fill:#407BFF"></path><rect x="567.29" y="97.72" width="7.25" height="209.88" style="fill:#dbdbdb"></rect><path d="M570.91,183.9h0A1.87,1.87,0,0,1,569,182v-81a1.88,1.88,0,0,1,1.88-1.87h0a1.87,1.87,0,0,1,1.87,1.87v81A1.87,1.87,0,0,1,570.91,183.9Z" style="fill:#a6a6a6"></path><rect x="181.39" y="142.64" width="74.22" height="151.96" style="fill:#ebebeb"></rect><rect x="268.36" y="141.54" width="285.2" height="153.59" style="fill:#ebebeb"></rect><rect x="488.91" y="168.95" width="13.69" height="91.1" style="fill:#407BFF"></rect><rect x="418.34" y="174.78" width="13.69" height="85.27" style="fill:#407BFF"></rect><rect x="300.73" y="176.97" width="13.69" height="83.08" style="fill:#407BFF"></rect><rect x="324.25" y="190.78" width="13.69" height="69.27" style="fill:#455a64"></rect><rect x="347.77" y="215.96" width="13.69" height="44.09" style="fill:#407BFF"></rect><rect x="371.3" y="189.57" width="13.69" height="70.48" style="fill:#407BFF"></rect><rect x="394.82" y="201.14" width="13.69" height="58.91" style="fill:#455a64"></rect><rect x="441.87" y="187.93" width="13.69" height="72.12" style="fill:#455a64"></rect><rect x="465.39" y="209.17" width="13.69" height="50.88" style="fill:#407BFF"></rect><rect x="512.44" y="160.36" width="13.69" height="99.69" style="fill:#455a64"></rect><path d="M291.25,159.62l.19,25.11.09,25.11.13,50.21-.41-.41c39.71-.12,136.46.05,176.18.08l33.12.09,29.38.24-29.38.24-33.12.09c-39.72,0-136.47.2-176.18.08h-.42v-.41l.14-50.21.09-25.11Z" style="fill:#c7c7c7"></path><path d="M287.64,165.39a14.36,14.36,0,0,1,7.21,0,14.36,14.36,0,0,1-7.21,0Z" style="fill:#c7c7c7"></path><path d="M287.64,175.36a13.16,13.16,0,0,1,3.61-.47,12.72,12.72,0,0,1,3.6.47,14.36,14.36,0,0,1-7.21,0Z" style="fill:#c7c7c7"></path><path d="M287.64,185.32a14.36,14.36,0,0,1,7.21,0,12.72,12.72,0,0,1-3.6.47A13.16,13.16,0,0,1,287.64,185.32Z" style="fill:#c7c7c7"></path><path d="M287.64,195.29a13.16,13.16,0,0,1,3.61-.47,12.72,12.72,0,0,1,3.6.47,12.71,12.71,0,0,1-3.6.46A13.15,13.15,0,0,1,287.64,195.29Z" style="fill:#c7c7c7"></path><path d="M287.64,205.25a14.36,14.36,0,0,1,7.21,0,14.06,14.06,0,0,1-7.21,0Z" style="fill:#c7c7c7"></path><path d="M287.64,215.22a13.15,13.15,0,0,1,3.61-.46,12.71,12.71,0,0,1,3.6.46,14.06,14.06,0,0,1-7.21,0Z" style="fill:#c7c7c7"></path><path d="M287.64,225.19a13.16,13.16,0,0,1,3.61-.47,12.72,12.72,0,0,1,3.6.47,14.36,14.36,0,0,1-7.21,0Z" style="fill:#c7c7c7"></path><path d="M287.64,235.15a14.36,14.36,0,0,1,7.21,0,12.72,12.72,0,0,1-3.6.47A13.16,13.16,0,0,1,287.64,235.15Z" style="fill:#c7c7c7"></path><path d="M287.64,245.12a14.36,14.36,0,0,1,7.21,0,12.71,12.71,0,0,1-3.6.46A13.15,13.15,0,0,1,287.64,245.12Z" style="fill:#c7c7c7"></path><rect x="189.98" y="151.85" width="44.08" height="4.31" style="fill:#c7c7c7"></rect><rect x="198.2" y="162.69" width="48.83" height="1" style="fill:#c7c7c7"></rect><rect x="198.2" y="167.52" width="48.83" height="1" style="fill:#c7c7c7"></rect><rect x="198.2" y="172.34" width="37.85" height="1" style="fill:#c7c7c7"></rect><rect x="189.98" y="224.72" width="44.08" height="4.31" style="fill:#c7c7c7"></rect><rect x="198.2" y="235.57" width="48.83" height="1" style="fill:#c7c7c7"></rect><rect x="198.2" y="240.39" width="48.83" height="1" style="fill:#c7c7c7"></rect><rect x="198.2" y="245.21" width="37.85" height="1" style="fill:#c7c7c7"></rect><rect x="198.2" y="181.98" width="48.83" height="1" style="fill:#c7c7c7"></rect><rect x="198.2" y="186.8" width="48.83" height="1" style="fill:#c7c7c7"></rect><rect x="198.2" y="191.63" width="48.83" height="1" style="fill:#c7c7c7"></rect><rect x="198.2" y="196.45" width="37.85" height="1" style="fill:#c7c7c7"></rect><rect x="198.2" y="206.09" width="48.83" height="1" style="fill:#c7c7c7"></rect><rect x="198.2" y="210.91" width="48.83" height="1" style="fill:#c7c7c7"></rect><rect x="198.2" y="215.73" width="37.85" height="1" style="fill:#c7c7c7"></rect><rect x="300.73" y="270.1" width="7.98" height="7.98" style="fill:#407BFF"></rect><path d="M317.62,272.1c6.71-.21,13.41-.3,20.12-.38s13.41-.08,20.12-.12l20.12.11,10.06.14c3.35.09,6.7.14,10.06.25-3.36.11-6.71.16-10.06.24l-10.06.14-20.12.12c-6.71,0-13.41,0-20.12-.12S324.33,272.3,317.62,272.1Z" style="fill:#c7c7c7"></path><path d="M317.62,275.76c4.41-.21,8.81-.31,13.22-.39s8.82-.07,13.22-.11,8.82,0,13.22.11l6.61.14c2.21.08,4.41.13,6.61.25-2.2.11-4.4.16-6.61.24l-6.61.14c-4.4.08-8.81.08-13.22.12s-8.81,0-13.22-.12S322,276,317.62,275.76Z" style="fill:#c7c7c7"></path><rect x="415.07" y="270.1" width="7.98" height="7.98" style="fill:#455a64"></rect><path d="M432,272.1c6.71-.21,13.42-.3,20.12-.38s13.41-.08,20.12-.12l20.12.11,10.06.14c3.35.09,6.71.14,10.06.25-3.35.11-6.71.16-10.06.24l-10.06.14-20.12.12c-6.71,0-13.41,0-20.12-.12S438.67,272.3,432,272.1Z" style="fill:#c7c7c7"></path><path d="M432,275.76c4.41-.21,8.82-.31,13.22-.39s8.82-.07,13.22-.11,8.82,0,13.23.11l6.61.14c2.2.08,4.4.13,6.61.25-2.21.11-4.41.16-6.61.24l-6.61.14c-4.41.08-8.82.08-13.23.12s-8.81,0-13.22-.12S436.37,276,432,275.76Z" style="fill:#c7c7c7"></path></g><g id="freepik--Windows--inject-67"><rect x="489.13" y="133.11" width="167.82" height="139.48" style="fill:#fff"></rect><path d="M657,272.6l-167.82.13H489v-.13l-.12-139.49v-.25h.25L657,133h.12v.11Zm0,0-.11-139.49.11.12-167.82.13.25-.25-.11,139.49-.14-.14Z" style="fill:#263238"></path><rect x="488.94" y="133.11" width="168.21" height="11.15" style="fill:#37474f"></rect><path d="M497.8,138.69a2.77,2.77,0,1,1-2.77-2.77A2.77,2.77,0,0,1,497.8,138.69Z" style="fill:#c7c7c7"></path><circle cx="506.32" cy="138.69" r="2.76" style="fill:#fff"></circle><path d="M520.37,138.69a2.76,2.76,0,1,1-2.76-2.77A2.76,2.76,0,0,1,520.37,138.69Z" style="fill:#407BFF"></path><rect x="510.01" y="249.41" width="6.08" height="6.08" style="fill:#263238"></rect><path d="M521.76,251c2.07-.18,4.14-.26,6.21-.32s5.82,0,5.82,0l3.1.11c1,.07,2.07.11,3.1.21-1,.09-2.07.13-3.1.2l-3.1.12s-3.75.06-5.82,0S523.83,251.18,521.76,251Z" style="fill:#c7c7c7"></path><path d="M521.76,254.05c2.06-.18,4.12-.26,6.18-.32s5.46.11,5.46.11c1,.07,2.07.11,3.1.21-1,.09-2.06.13-3.1.2,0,0-3.4.18-5.46.11S523.82,254.22,521.76,254.05Z" style="fill:#c7c7c7"></path><rect x="558.23" y="249.41" width="6.08" height="6.08" style="fill:#455a64"></rect><path d="M570,251c2.07-.18,4.14-.26,6.21-.32s5.82,0,5.82,0l3.1.11c1,.07,2.07.11,3.1.21-1,.09-2.06.13-3.1.2l-3.1.12s-3.75.06-5.82,0S572,251.18,570,251Z" style="fill:#c7c7c7"></path><path d="M570,254.05c2.06-.18,4.12-.26,6.18-.32s5.47.11,5.47.11c1,.07,2.06.11,3.09.21-1,.09-2.06.13-3.09.2,0,0-3.4.18-5.47.11S572,254.22,570,254.05Z" style="fill:#c7c7c7"></path><rect x="606.44" y="249.41" width="6.08" height="6.08" style="fill:#407BFF"></rect><path d="M618.18,251c2.07-.18,4.14-.26,6.21-.32s5.82,0,5.82,0l3.1.11c1,.07,2.07.11,3.11.21-1,.09-2.07.13-3.11.2l-3.1.12s-3.75.06-5.82,0S620.25,251.18,618.18,251Z" style="fill:#c7c7c7"></path><path d="M618.18,254.05c2.06-.18,4.13-.26,6.19-.32s5.46.11,5.46.11c1,.07,2.06.11,3.09.21-1,.09-2.06.13-3.09.2,0,0-3.4.18-5.46.11S620.24,254.22,618.18,254.05Z" style="fill:#c7c7c7"></path><path d="M506,231.36c11-.21,22.07-.31,33.1-.39l33.1-.11,33.1.11,16.55.14,16.55.25-16.55.24-16.55.14-33.1.11-33.1-.11C528,231.66,517,231.56,506,231.36Z" style="fill:#ebebeb"></path><path d="M506,222.2c11-.21,22.07-.3,33.1-.38l33.1-.12,33.1.12,16.55.13,16.55.25-16.55.25-16.55.13-33.1.12-33.1-.12C528,222.5,517,222.41,506,222.2Z" style="fill:#ebebeb"></path><path d="M506,213c11-.2,22.07-.3,33.1-.38l33.1-.11,33.1.11,16.55.14,16.55.24-16.55.25-16.55.14-33.1.11-33.1-.11C528,213.35,517,213.25,506,213Z" style="fill:#ebebeb"></path><path d="M506,203.89c11-.21,22.07-.3,33.1-.38l33.1-.12,33.1.12,16.55.13,16.55.25-16.55.25-16.55.13-33.1.12-33.1-.12C528,204.19,517,204.1,506,203.89Z" style="fill:#ebebeb"></path><path d="M506,194.73c11-.2,22.07-.3,33.1-.38l33.1-.11,33.1.11,16.55.14,16.55.24-16.55.25-16.55.14-33.1.11-33.1-.11C528,195,517,194.94,506,194.73Z" style="fill:#ebebeb"></path><path d="M506,185.58c11-.21,22.07-.3,33.1-.38l33.1-.12,33.1.12,16.55.13,16.55.25-16.55.24-16.55.14-33.1.12-33.1-.12C528,185.88,517,185.79,506,185.58Z" style="fill:#ebebeb"></path><path d="M506,176.42c11-.2,22.07-.3,33.1-.38l33.1-.11,33.1.11,16.55.14,16.55.24-16.55.25-16.55.14-33.1.11-33.1-.11C528,176.73,517,176.63,506,176.42Z" style="fill:#ebebeb"></path><path d="M506,167.27c11-.21,22.07-.3,33.1-.38l33.1-.12,33.1.11,16.55.14,16.55.25-16.55.24-16.55.14-33.1.12-33.1-.12C528,167.57,517,167.48,506,167.27Z" style="fill:#ebebeb"></path><path d="M506,158.11c11-.2,22.07-.3,33.1-.38l33.1-.12,33.1.12,16.55.14,16.55.24-16.55.25-16.55.14-33.1.11-33.1-.11C528,158.42,517,158.32,506,158.11Z" style="fill:#ebebeb"></path><polygon points="512.17 227.72 511.94 226.74 529.1 222.84 545.55 206.7 552.17 211.1 565.28 198 572.49 202.32 577.17 198.4 590.23 212.18 607.39 191.55 621.67 206.74 638.17 199.2 638.58 200.11 621.43 207.94 607.44 193.06 590.28 213.69 577.09 199.77 572.58 203.54 565.43 199.26 552.3 212.39 545.68 207.98 529.6 223.75 529.46 223.78 512.17 227.72" style="fill:#455a64"></polygon><circle cx="529.37" cy="223.15" r="1.73" style="fill:#455a64"></circle><path d="M547.18,207.48a1.74,1.74,0,1,1-1.74-1.74A1.73,1.73,0,0,1,547.18,207.48Z" style="fill:#455a64"></path><path d="M567.23,198.77A1.73,1.73,0,1,1,565.5,197,1.73,1.73,0,0,1,567.23,198.77Z" style="fill:#455a64"></path><path d="M574.28,203a1.74,1.74,0,1,1-1.73-1.73A1.74,1.74,0,0,1,574.28,203Z" style="fill:#455a64"></path><path d="M578.89,199.22a1.74,1.74,0,1,1-1.74-1.74A1.74,1.74,0,0,1,578.89,199.22Z" style="fill:#455a64"></path><circle cx="607.26" cy="192.3" r="1.73" style="fill:#455a64"></circle><circle cx="621.81" cy="207.09" r="1.73" style="fill:#455a64"></circle><path d="M640.11,199.89a1.74,1.74,0,1,1-1.74-1.73A1.74,1.74,0,0,1,640.11,199.89Z" style="fill:#455a64"></path><path d="M592,212.79a1.74,1.74,0,1,1-1.74-1.73A1.74,1.74,0,0,1,592,212.79Z" style="fill:#455a64"></path><polygon points="512.42 227.45 511.69 226.78 530.03 206.72 537.44 210.62 557.02 190.72 562.43 195.16 571.67 187.21 589.28 199.88 593.19 195.43 603.16 204.63 617.79 191.64 627.17 199.67 638.24 196.68 638.5 197.65 626.92 200.77 617.8 192.97 603.15 205.98 593.27 196.86 589.43 201.23 571.72 188.48 562.45 196.46 557.09 192.08 537.63 211.85 530.25 207.96 512.42 227.45" style="fill:#263238"></polygon><circle cx="530" cy="207.67" r="1.73" style="fill:#263238"></circle><path d="M539.18,211.14a1.74,1.74,0,1,1-1.74-1.73A1.74,1.74,0,0,1,539.18,211.14Z" style="fill:#263238"></path><path d="M558.56,191.52a1.74,1.74,0,1,1-1.74-1.74A1.73,1.73,0,0,1,558.56,191.52Z" style="fill:#263238"></path><path d="M564.38,195.75a1.74,1.74,0,1,1-1.73-1.74A1.73,1.73,0,0,1,564.38,195.75Z" style="fill:#263238"></path><path d="M573.44,187.84a1.74,1.74,0,1,1-1.73-1.73A1.73,1.73,0,0,1,573.44,187.84Z" style="fill:#263238"></path><circle cx="589.25" cy="200.51" r="1.73" style="fill:#263238"></circle><path d="M594.75,196.2a1.74,1.74,0,1,1-1.73-1.73A1.73,1.73,0,0,1,594.75,196.2Z" style="fill:#263238"></path><path d="M604.68,205.36a1.74,1.74,0,1,1-1.74-1.74A1.73,1.73,0,0,1,604.68,205.36Z" style="fill:#263238"></path><path d="M619.64,192.73a1.74,1.74,0,1,1-1.73-1.73A1.74,1.74,0,0,1,619.64,192.73Z" style="fill:#263238"></path><circle cx="627.13" cy="200.25" r="1.73" style="fill:#263238"></circle><path d="M640.11,197a1.74,1.74,0,1,1-1.74-1.74A1.74,1.74,0,0,1,640.11,197Z" style="fill:#263238"></path><polygon points="512.71 227.16 512.21 226.3 534.48 213.51 546.43 218.89 552.97 216.69 559.84 220.93 574.03 210.5 579.71 215.1 585.72 213.31 595.55 218.86 611.06 211.46 620.88 218.81 638.08 206.44 638.67 207.25 620.87 220.04 610.95 212.62 595.51 219.99 585.6 214.39 579.49 216.21 574 211.76 559.88 222.13 552.84 217.79 546.37 219.96 534.54 214.63 512.71 227.16" style="fill:#407BFF"></polygon><path d="M536.25,214.07a1.74,1.74,0,1,1-1.74-1.73A1.74,1.74,0,0,1,536.25,214.07Z" style="fill:#407BFF"></path><circle cx="546.4" cy="219.36" r="1.73" style="fill:#407BFF"></circle><circle cx="552.92" cy="217.54" r="1.73" style="fill:#407BFF"></circle><path d="M561.69,221.41a1.74,1.74,0,1,1-1.74-1.73A1.74,1.74,0,0,1,561.69,221.41Z" style="fill:#407BFF"></path><path d="M581.26,215.41a1.74,1.74,0,1,1-1.73-1.74A1.73,1.73,0,0,1,581.26,215.41Z" style="fill:#407BFF"></path><circle cx="595.45" cy="219.28" r="1.73" style="fill:#407BFF"></circle><circle cx="621.13" cy="219.28" r="1.73" style="fill:#407BFF"></circle><circle cx="573.91" cy="211.06" r="1.73" style="fill:#407BFF"></circle><circle cx="585.78" cy="214.07" r="1.73" style="fill:#407BFF"></circle><path d="M612.6,211.94a1.74,1.74,0,1,1-1.74-1.74A1.73,1.73,0,0,1,612.6,211.94Z" style="fill:#407BFF"></path><path d="M640.11,206.84a1.74,1.74,0,1,1-1.74-1.73A1.74,1.74,0,0,1,640.11,206.84Z" style="fill:#407BFF"></path><polygon points="510.61 153.82 510.81 175.43 510.94 197.04 511.04 218.64 511.07 240.25 510.61 239.78 542.12 239.77 573.62 239.82 605.13 239.97 636.64 240.25 605.13 240.52 573.62 240.68 542.12 240.73 510.61 240.71 510.14 240.71 510.14 240.25 510.18 218.64 510.28 197.04 510.41 175.43 510.61 153.82" style="fill:#ebebeb"></polygon><rect x="416.26" y="283.75" width="167.82" height="132.45" style="fill:#fff"></rect><path d="M584.08,416.2l-167.82.14h-.14v-.14L416,283.75v-.25h.25l167.82.14h.12v.11Zm0,0L584,283.75l.12.12L416.26,284l.25-.25L416.4,416.2l-.14-.14Z" style="fill:#263238"></path><rect x="416.07" y="283.75" width="168.21" height="11.15" style="fill:#37474f"></rect><path d="M424.93,289.33a2.77,2.77,0,1,1-2.77-2.77A2.77,2.77,0,0,1,424.93,289.33Z" style="fill:#c7c7c7"></path><circle cx="433.45" cy="289.33" r="2.76" style="fill:#fff"></circle><path d="M447.5,289.33a2.76,2.76,0,1,1-2.76-2.77A2.76,2.76,0,0,1,447.5,289.33Z" style="fill:#407BFF"></path><rect x="438.1" y="393.77" width="6.08" height="6.08" style="fill:#407BFF"></rect><path d="M449.85,395.37c2.07-.17,4.14-.25,6.2-.32s5.82,0,5.82,0l3.11.12c1,.07,2.07.11,3.1.2-1,.1-2.07.14-3.1.21l-3.11.11s-3.75.07-5.82,0S451.92,395.54,449.85,395.37Z" style="fill:#c7c7c7"></path><path d="M449.85,398.41c2.06-.17,4.12-.25,6.18-.32s5.46.12,5.46.12c1,.07,2.06.11,3.1.2-1,.1-2.07.14-3.1.21,0,0-3.4.18-5.46.11S451.91,398.58,449.85,398.41Z" style="fill:#c7c7c7"></path><path d="M438.1,362.53c4,0,6.37-13.12,12-13.12s6.25,9.57,11,9.57,4.61-16.81,11-16.81S477,349,483.73,349s4.17-15.84,11.16-15.84S499.05,355,506.34,355c4.61,0,6.4-6.93,11.9-6.93,3.64,0,5.79,3.47,10.55,3.47s5.81-13.33,11.76-13.33,6.63,7.89,11,7.89,6-12.92,14-12.92v51.1H438.1Z" style="fill:#407BFF;opacity:0.5"></path><path d="M438.1,363.16V361.9c1.21,0,2.88-3.07,4.09-5.3,2.09-3.85,4.25-7.82,7.93-7.82s5.3,2.91,6.85,5.48c1.21,2,2.47,4.09,4.16,4.09,1.49,0,2.78-4,3.72-7,1.54-4.83,3.14-9.82,7.28-9.82,3.71,0,5.16,2,6.44,3.69s2.32,3.13,5.16,3.13c2.58,0,3.58-3.7,4.56-7.28,1.14-4.21,2.33-8.56,6.6-8.56s5.32,5.48,6.47,11.28c.92,4.7,2.08,10.54,5,10.54,1.74,0,3.15-1.44,4.65-3,1.83-1.86,3.91-4,7.25-4a10.35,10.35,0,0,1,5.09,1.69,10.8,10.8,0,0,0,5.46,1.78c1.65,0,3.16-3.17,4.37-5.72,1.78-3.74,3.62-7.61,7.39-7.61s5.59,2.51,7.22,4.73c1.18,1.62,2.31,3.15,3.78,3.15,1.26,0,2.69-2.45,3.94-4.61,2.15-3.7,4.82-8.3,10-8.3v1.26c-4,0-6.34,4-8.38,7.52-1.75,3-3.14,5.4-5.6,5.4s-3.93-1.86-5.37-3.84-3-4.05-5.63-4.05c-2.49,0-4.19,3.59-5.69,6.75-1.68,3.53-3.13,6.58-6.07,6.58a12.8,12.8,0,0,1-6.56-2,8.38,8.38,0,0,0-4-1.43c-2.41,0-4.12,1.74-5.78,3.43s-3.45,3.5-6.12,3.5c-4.46,0-5.57-5.64-6.76-11.62-.89-4.54-2-10.2-4.69-10.2s-3.88,4-4.85,7.54c-1.16,4.27-2.26,8.3-6.31,8.3s-5.42-2-6.74-3.81c-1.2-1.61-2.23-3-4.86-3s-4.28,4.9-5.54,8.84c-1.42,4.46-2.54,8-5.46,8s-4.3-2.36-5.8-4.86c-1.4-2.31-2.85-4.71-5.21-4.71s-4.56,3.89-6.26,7C442,360.46,440.54,363.16,438.1,363.16Z" style="fill:#407BFF"></path><path d="M434.81,320.23c21.79-.13,43.57-.1,65.36-.15s43.58,0,65.36.15c-21.78.14-43.57.11-65.36.16S456.6,320.37,434.81,320.23Z" style="fill:#c7c7c7"></path><path d="M434.81,333.15c21.79-.14,43.57-.1,65.36-.16s43.58,0,65.36.16c-21.78.14-43.57.1-65.36.16S456.6,333.28,434.81,333.15Z" style="fill:#c7c7c7"></path><path d="M434.81,346.07c21.79-.14,43.57-.11,65.36-.16s43.58,0,65.36.16c-21.78.13-43.57.1-65.36.15S456.6,346.2,434.81,346.07Z" style="fill:#c7c7c7"></path><path d="M434.81,359c21.79-.13,43.57-.1,65.36-.16s43.58,0,65.36.16c-21.78.14-43.57.1-65.36.16S456.6,359.12,434.81,359Z" style="fill:#c7c7c7"></path><path d="M434.81,371.9c21.79-.14,43.57-.1,65.36-.16s43.58,0,65.36.16c-21.78.13-43.57.1-65.36.16S456.6,372,434.81,371.9Z" style="fill:#c7c7c7"></path><path d="M461.13,311.84c.19,12.06.14,24.13.22,36.2-.08,12.07,0,24.14-.22,36.21-.19-12.07-.15-24.14-.22-36.21S460.94,323.9,461.13,311.84Z" style="fill:#c7c7c7"></path><path d="M483.73,311.84c.2,12.06.15,24.13.23,36.2-.08,12.07,0,24.14-.23,36.21-.19-12.07-.14-24.14-.22-36.21C483.59,336,483.54,323.9,483.73,311.84Z" style="fill:#c7c7c7"></path><path d="M506.34,311.84c.19,12.06.14,24.13.22,36.2s0,24.14-.22,36.21c-.19-12.07-.14-24.14-.22-36.21C506.2,336,506.15,323.9,506.34,311.84Z" style="fill:#c7c7c7"></path><path d="M529,311.84c.19,12.06.14,24.13.22,36.2-.08,12.07,0,24.14-.22,36.21-.2-12.07-.15-24.14-.23-36.21C528.8,336,528.75,323.9,529,311.84Z" style="fill:#c7c7c7"></path><path d="M551.55,311.84c.19,12.06.15,24.13.23,36.2-.08,12.07,0,24.14-.23,36.21-.19-12.07-.14-24.14-.22-36.21C551.41,336,551.36,323.9,551.55,311.84Z" style="fill:#c7c7c7"></path><path d="M438.1,312.62c.15,11.94.27,23.88.28,35.81l.14,35.82-.42-.3,63.72.08,31.86.05,31.85.17-31.85.16-31.86.06-63.72.07h-.42v-.29l.14-35.82C437.83,336.5,438,324.56,438.1,312.62Z" style="fill:#c7c7c7"></path></g></svg>